<svg width="24" height="24" viewBox="0 0 24 24" fill="none" xmlns="http://www.w3.org/2000/svg">
<path fill-rule="evenodd" clip-rule="evenodd" d="M12.0001 0.600098C9.01778 0.600098 6.60012 3.01776 6.60012 6.0001C6.60012 8.98244 9.01778 11.4001 12.0001 11.4001C14.9825 11.4001 17.4001 8.98244 17.4001 6.0001C17.4001 3.01776 14.9825 0.600098 12.0001 0.600098ZM8.40012 6.0001C8.40012 4.01187 10.0119 2.4001 12.0001 2.4001C13.9883 2.4001 15.6001 4.01187 15.6001 6.0001C15.6001 7.98832 13.9883 9.6001 12.0001 9.6001C10.0119 9.6001 8.40012 7.98832 8.40012 6.0001Z" fill="black"/>
<path fill-rule="evenodd" clip-rule="evenodd" d="M12.0001 12.6001C9.37448 12.6001 6.85637 13.6431 4.99976 15.4997C3.45614 17.0434 2.47494 19.0442 2.18796 21.1839C2.01657 22.4618 3.07814 23.4001 4.20012 23.4001H19.8001C20.9221 23.4001 21.9837 22.4618 21.8123 21.1839C21.5253 19.0442 20.5441 17.0434 19.0005 15.4997C17.1439 13.6431 14.6258 12.6001 12.0001 12.6001ZM6.27255 16.7725C7.7916 15.2535 9.85186 14.4001 12.0001 14.4001C14.1484 14.4001 16.2086 15.2535 17.7277 16.7725C18.9906 18.0355 19.7934 19.6725 20.0282 21.4232C20.0332 21.4603 20.025 21.491 19.9923 21.5251C19.9544 21.5646 19.8871 21.6001 19.8001 21.6001L4.20012 21.6001C4.11311 21.6001 4.04586 21.5646 4.00793 21.5251C3.97519 21.491 3.96701 21.4603 3.97199 21.4232C4.20679 19.6725 5.00963 18.0355 6.27255 16.7725Z" fill="black"/>
</svg>
