<svg width="24" height="24" viewBox="0 0 24 24" fill="none" xmlns="http://www.w3.org/2000/svg">
<path d="M6.25 12C6.25 11.5858 6.58579 11.25 7 11.25H11.25V7C11.25 6.58579 11.5858 6.25 12 6.25C12.4142 6.25 12.75 6.58579 12.75 7V11.25H17C17.4142 11.25 17.75 11.5858 17.75 12C17.75 12.4142 17.4142 12.75 17 12.75H12.75V17C12.75 17.4142 12.4142 17.75 12 17.75C11.5858 17.75 11.25 17.4142 11.25 17V12.75H7C6.58579 12.75 6.25 12.4142 6.25 12Z" fill="black"/>
<path fill-rule="evenodd" clip-rule="evenodd" d="M0.25 7C0.25 3.27208 3.27208 0.25 7 0.25H17C20.7279 0.25 23.75 3.27208 23.75 7V17C23.75 20.7279 20.7279 23.75 17 23.75H7C3.27208 23.75 0.25 20.7279 0.25 17V7ZM7 1.75C4.10051 1.75 1.75 4.1005 1.75 7V17C1.75 19.8995 4.1005 22.25 7 22.25H17C19.8995 22.25 22.25 19.8995 22.25 17V7C22.25 4.10051 19.8995 1.75 17 1.75H7Z" fill="black"/>
</svg>
