<svg width="24" height="24" viewBox="0 0 24 24" fill="none" xmlns="http://www.w3.org/2000/svg">
<path d="M23.2064 0.792893C23.5969 1.18342 23.5969 1.81658 23.2064 2.20711L16.6635 8.75L21.2502 8.75C21.8025 8.75 22.2502 9.19772 22.2502 9.75C22.2502 10.3023 21.8025 10.75 21.2502 10.75L14.2504 10.75C13.6981 10.75 13.2504 10.3023 13.2504 9.75L13.2504 2.75014C13.2504 2.19786 13.6981 1.75014 14.2504 1.75014C14.8027 1.75014 15.2504 2.19786 15.2504 2.75014L15.2504 7.33469L21.7922 0.792893C22.1827 0.402369 22.8158 0.402369 23.2064 0.792893Z" fill="black"/>
<path d="M8.75037 21.2502C8.75037 21.8025 9.19808 22.2502 9.75037 22.2502C10.3027 22.2502 10.7504 21.8025 10.7504 21.2502L10.7504 14.2504C10.7504 13.6981 10.3027 13.2504 9.75037 13.2504L2.75051 13.2504C2.19822 13.2504 1.75051 13.6981 1.75051 14.2504C1.75051 14.8027 2.19822 15.2504 2.75051 15.2504L7.33469 15.2504L0.792893 21.7922C0.402369 22.1827 0.402369 22.8158 0.792893 23.2064C1.18342 23.5969 1.81658 23.5969 2.20711 23.2064L8.75037 16.6631L8.75037 21.2502Z" fill="black"/>
</svg>
