<svg width="24" height="24" viewBox="0 0 24 24" fill="none" xmlns="http://www.w3.org/2000/svg">
<path d="M9.50197 12.8507C9.50197 12.6267 9.31493 12.4453 9.08414 12.4453H7.62609C7.39557 12.4453 7.2085 12.6267 7.2085 12.8507V14.2664C7.2085 14.4906 7.39557 14.6721 7.62609 14.6721H9.08414C9.31493 14.6721 9.50197 14.4906 9.50197 14.2664V12.8507Z" fill="#ED4B41"/>
<path d="M13.1477 12.8507C13.1477 12.6267 12.9607 12.4453 12.7303 12.4453H11.2721C11.0416 12.4453 10.8545 12.6267 10.8545 12.8507V14.2664C10.8545 14.4906 11.0416 14.6721 11.2721 14.6721H12.7303C12.9607 14.6721 13.1477 14.4906 13.1477 14.2664V12.8507Z" fill="#ED4B41"/>
<path d="M16.791 12.8507C16.791 12.6267 16.604 12.4453 16.3734 12.4453H14.9154C14.6846 12.4453 14.4976 12.6267 14.4976 12.8507V14.2664C14.4976 14.4906 14.6846 14.6721 14.9154 14.6721H16.3734C16.604 14.6721 16.791 14.4906 16.791 14.2664V12.8507Z" fill="#ED4B41"/>
<path d="M9.50197 16.389C9.50197 16.1647 9.31493 15.9834 9.08414 15.9834H7.62609C7.39557 15.9834 7.2085 16.1647 7.2085 16.389V17.8044C7.2085 18.0285 7.39557 18.2099 7.62609 18.2099H9.08414C9.31493 18.2099 9.50197 18.0285 9.50197 17.8044V16.389Z" fill="#ED4B41"/>
<path d="M13.1477 16.389C13.1477 16.1647 12.9607 15.9834 12.7303 15.9834H11.2721C11.0416 15.9834 10.8545 16.1647 10.8545 16.389V17.8044C10.8545 18.0285 11.0416 18.2099 11.2721 18.2099H12.7303C12.9607 18.2099 13.1477 18.0285 13.1477 17.8044V16.389Z" fill="#ED4B41"/>
<path d="M19.3978 4.97847V7.14085C19.3978 8.11823 18.5813 8.90584 17.575 8.90584H16.4251C15.4187 8.90584 14.5914 8.11823 14.5914 7.14085V4.9707H9.40859V7.14085C9.40859 8.11823 8.58131 8.90584 7.57506 8.90584H6.42495C5.41867 8.90584 4.60221 8.11823 4.60221 7.14085V4.97847C3.72271 5.00421 3 5.71093 3 6.57958V19.2522C3 20.1372 3.73866 20.864 4.64999 20.864H19.35C20.26 20.864 21 20.1357 21 19.2522V6.57958C21 5.71093 20.2773 5.00421 19.3978 4.97847ZM18.8637 18.463C18.8637 18.8455 18.5444 19.1558 18.1504 19.1558H5.81816C5.42417 19.1558 5.10485 18.8455 5.10485 18.463V11.9172C5.10485 11.5346 5.42413 11.2243 5.81816 11.2243H18.1504C18.5444 11.2243 18.8637 11.5346 18.8637 11.9172L18.8637 18.463Z" fill="#ED4B41"/>
<path d="M6.41983 7.74681H7.55723C7.90247 7.74681 8.18238 7.47538 8.18238 7.14013V3.59518C8.18238 3.25989 7.90247 2.98828 7.55723 2.98828H6.41983C6.07456 2.98828 5.79468 3.25989 5.79468 3.59518V7.14013C5.79468 7.47538 6.07456 7.74681 6.41983 7.74681Z" fill="#ED4B41"/>
<path d="M16.4105 7.74681H17.5479C17.8929 7.74681 18.1728 7.47538 18.1728 7.14013V3.59518C18.1729 3.25989 17.893 2.98828 17.5479 2.98828H16.4105C16.0653 2.98828 15.7854 3.25989 15.7854 3.59518V7.14013C15.7854 7.47538 16.0653 7.74681 16.4105 7.74681Z" fill="#ED4B41"/>
</svg>
