<svg width="24" height="24" viewBox="0 0 24 24" fill="none" xmlns="http://www.w3.org/2000/svg">
<path d="M2.75137 2.75137C3.22 2.28275 3.9798 2.28275 4.44843 2.75137L11.9999 10.3028L19.5514 2.75137C20.02 2.28275 20.7798 2.28275 21.2484 2.75137C21.7171 3.22 21.7171 3.9798 21.2484 4.44843L13.697 11.9999L21.2484 19.5514C21.7171 20.02 21.7171 20.7798 21.2484 21.2484C20.7798 21.7171 20.02 21.7171 19.5514 21.2484L11.9999 13.697L4.44843 21.2484C3.9798 21.7171 3.22 21.7171 2.75137 21.2484C2.28275 20.7798 2.28275 20.02 2.75137 19.5514L10.3028 11.9999L2.75137 4.44843C2.28275 3.9798 2.28275 3.22 2.75137 2.75137Z" fill="black"/>
</svg>
