<svg width="24" height="24" viewBox="0 0 24 24" fill="none" xmlns="http://www.w3.org/2000/svg">
<path d="M11.4363 7.76356C11.0849 7.41208 10.515 7.41208 10.1635 7.76356C9.81206 8.11503 9.81206 8.68488 10.1635 9.03635L13.1271 12L10.1635 14.9636C9.81206 15.315 9.81206 15.8849 10.1635 16.2363C10.515 16.5878 11.0849 16.5878 11.4363 16.2363L14.3999 13.2727L17.3635 16.2363C17.715 16.5878 18.2849 16.5878 18.6363 16.2363C18.9878 15.8849 18.9878 15.315 18.6363 14.9636L15.6727 12L18.6363 9.03635C18.9878 8.68488 18.9878 8.11503 18.6363 7.76356C18.2849 7.41208 17.715 7.41208 17.3635 7.76356L14.3999 10.7272L11.4363 7.76356Z" fill="black"/>
<path fill-rule="evenodd" clip-rule="evenodd" d="M11.2225 2.69995C9.65728 2.69995 8.16097 3.34356 7.08453 4.4798L1.32843 10.5557C0.561098 11.3656 0.561095 12.6343 1.32843 13.4442L7.08453 19.5201C8.16097 20.6563 9.65728 21.3 11.2225 21.3H20.3999C22.2225 21.3 23.6999 19.8225 23.6999 18V5.99995C23.6999 4.17741 22.2225 2.69995 20.3999 2.69995H11.2225ZM8.39124 5.71775C9.12776 4.94032 10.1515 4.49995 11.2225 4.49995H20.3999C21.2284 4.49995 21.8999 5.17152 21.8999 5.99995V18C21.8999 18.8284 21.2284 19.5 20.3999 19.5H11.2225C10.1515 19.5 9.12776 19.0596 8.39124 18.2822L2.63514 12.2063C2.52553 12.0906 2.52552 11.9093 2.63514 11.7936L8.39124 5.71775Z" fill="black"/>
</svg>
