<svg width="24" height="24" viewBox="0 0 24 24" fill="none" xmlns="http://www.w3.org/2000/svg">
<path d="M13 2C13 1.44772 12.5523 1 12 1C11.4477 1 11 1.44772 11 2V14.0858L6.70711 9.79293C6.31658 9.4024 5.68342 9.4024 5.29289 9.79293C4.90237 10.1835 4.90237 10.8166 5.29289 11.2071L11.2929 17.2071C11.5007 17.4149 11.7946 17.5216 12.0868 17.4963C12.313 17.4767 12.5339 17.3803 12.7071 17.2071L18.7071 11.2071C19.0976 10.8166 19.0976 10.1835 18.7071 9.79293C18.3166 9.4024 17.6834 9.4024 17.2929 9.79293L13 14.0858V2Z" fill="black"/>
<path d="M1.5 14C2.05228 14 2.5 14.4478 2.5 15V20C2.5 20.4193 2.65608 20.8086 2.91447 21.0855C3.17069 21.36 3.50285 21.5 3.83333 21.5H20.1667C20.4972 21.5 20.8293 21.36 21.0855 21.0855C21.3439 20.8086 21.5 20.4193 21.5 20V15C21.5 14.4478 21.9477 14 22.5 14C23.0523 14 23.5 14.4478 23.5 15V20C23.5 20.9069 23.1644 21.7893 22.5476 22.4501C21.9287 23.1133 21.0739 23.5 20.1667 23.5H3.83333C2.92614 23.5 2.07131 23.1133 1.45236 22.4501C0.835586 21.7893 0.5 20.9069 0.5 20V15C0.5 14.4478 0.947715 14 1.5 14Z" fill="black"/>
</svg>
