<svg width="24" height="24" viewBox="0 0 24 24" fill="none" xmlns="http://www.w3.org/2000/svg">
<path fill-rule="evenodd" clip-rule="evenodd" d="M0.300049 3.60005C0.300049 1.77751 1.77751 0.300049 3.60005 0.300049H13.2C15.0226 0.300049 16.5 1.77751 16.5 3.60005V6.00005C16.5 6.49711 16.0971 6.90005 15.6 6.90005C15.103 6.90005 14.7 6.49711 14.7 6.00005V3.60005C14.7 2.77162 14.0285 2.10005 13.2 2.10005H3.60005C2.77162 2.10005 2.10005 2.77162 2.10005 3.60005V20.4C2.10005 21.2285 2.77162 21.9 3.60005 21.9H13.2C14.0285 21.9 14.7 21.2285 14.7 20.4001V18C14.7 17.503 15.103 17.1 15.6 17.1C16.0971 17.1 16.5 17.503 16.5 18V20.4001C16.5 22.2226 15.0226 23.7 13.2 23.7H3.60005C1.77751 23.7 0.300049 22.2226 0.300049 20.4V3.60005ZM18.5637 7.76365C18.9151 7.41218 19.485 7.41218 19.8364 7.76365L23.4364 11.3637C23.6052 11.5324 23.7 11.7614 23.7 12C23.7 12.2387 23.6052 12.4677 23.4364 12.6364L19.8364 16.2364C19.485 16.5879 18.9151 16.5879 18.5637 16.2364C18.2122 15.885 18.2122 15.3151 18.5637 14.9637L20.6273 12.9H12C11.503 12.9 11.1 12.4971 11.1 12C11.1 11.503 11.503 11.1 12 11.1H20.6273L18.5637 9.03645C18.2122 8.68497 18.2122 8.11513 18.5637 7.76365Z" fill="black"/>
</svg>
