<svg width="24" height="24" viewBox="0 0 24 24" fill="none" xmlns="http://www.w3.org/2000/svg">
<path fill-rule="evenodd" clip-rule="evenodd" d="M3.71443 20.2861C3.3239 19.8956 3.3239 19.2625 3.71443 18.8719L4.99915 17.5872C3.11699 16.3049 1.58969 14.5218 0.596319 12.4285C0.467568 12.1572 0.467568 11.8424 0.596319 11.571C2.64708 7.24951 6.97342 4.24994 11.9997 4.24994C13.8535 4.24994 15.6122 4.65797 17.1965 5.38987L18.8726 3.71379C19.2631 3.32327 19.8963 3.32327 20.2868 3.71379C20.6773 4.10432 20.6773 4.73748 20.2868 5.12801C15.4682 9.94661 10.2086 15.2062 5.12864 20.2861C4.73812 20.6767 4.10495 20.6767 3.71443 20.2861ZM6.44349 16.1429L9.29251 13.2938C9.10495 12.9021 8.99991 12.4633 8.99991 11.9999C8.99991 10.3431 10.3431 8.99994 11.9999 8.99994C12.4632 8.99994 12.9021 9.10498 13.2938 9.29254L15.6688 6.91756C14.5235 6.48535 13.2875 6.24994 11.9997 6.24994C7.96324 6.24994 4.43439 8.56298 2.61808 11.9998C3.52007 13.7065 4.84439 15.1361 6.44349 16.1429Z" fill="black"/>
<path d="M9.02466 19.3894C9.97831 19.6248 10.9745 19.7496 11.9997 19.7496C17.026 19.7496 21.3524 16.75 23.4031 12.4285C23.5319 12.1572 23.5319 11.8424 23.4031 11.571C22.7205 10.1326 21.7858 8.84063 20.6571 7.75698L19.2429 9.17111C20.0955 9.98334 20.8202 10.9379 21.3814 11.9998C19.5651 15.4365 16.0362 17.7496 11.9997 17.7496C11.5738 17.7496 11.1535 17.7238 10.7403 17.6737L9.02466 19.3894Z" fill="black"/>
</svg>
