<svg width="24" height="24" viewBox="0 0 24 24" fill="none" xmlns="http://www.w3.org/2000/svg">
<path d="M15.5002 0.5L22.4993 0.5C23.0515 0.5 23.5001 0.947715 23.5001 1.5V8.49986C23.5001 9.05214 23.0524 9.49986 22.5001 9.49986C21.9478 9.49986 21.5001 9.05214 21.5001 8.49986V3.91338L15.0399 10.3736C14.6493 10.7641 14.0162 10.7641 13.6257 10.3736C13.2351 9.98308 13.2351 9.34992 13.6257 8.95939L20.0851 2.5H15.5002C14.948 2.5 14.5002 2.05228 14.5002 1.5C14.5002 0.947715 14.948 0.5 15.5002 0.5Z" fill="black"/>
<path d="M2.5 15.5002C2.5 14.948 2.05228 14.5002 1.5 14.5002C0.947715 14.5002 0.5 14.948 0.5 15.5002V22.4993C0.5 23.0516 0.947715 23.5001 1.5 23.5001H8.49986C9.05214 23.5001 9.49986 23.0524 9.49986 22.5001C9.49986 21.9478 9.05214 21.5001 8.49986 21.5001H3.91338L10.3736 15.0399C10.7641 14.6493 10.7641 14.0162 10.3736 13.6257C9.98308 13.2351 9.34992 13.2351 8.9594 13.6257L2.5 20.0851V15.5002Z" fill="black"/>
</svg>
