<svg width="24" height="24" viewBox="0 0 24 24" fill="none" xmlns="http://www.w3.org/2000/svg">
<path d="M11.9999 15C13.6568 15 14.9999 13.6569 14.9999 12C14.9999 10.3431 13.6568 9 11.9999 9C10.3431 9 8.9999 10.3431 8.9999 12C8.9999 13.6569 10.3431 15 11.9999 15Z" fill="black"/>
<path fill-rule="evenodd" clip-rule="evenodd" d="M11.9997 4.25C6.97342 4.25 2.64708 7.24957 0.596319 11.5711C0.467568 11.8424 0.467568 12.1572 0.596319 12.4285C2.64708 16.7501 6.97342 19.7496 11.9997 19.7496C17.026 19.7496 21.3524 16.7501 23.4031 12.4285C23.5319 12.1572 23.5319 11.8424 23.4031 11.5711C21.3524 7.24958 17.026 4.25 11.9997 4.25ZM11.9997 17.7496C7.96324 17.7496 4.43439 15.4366 2.61808 11.9998C4.43439 8.56304 7.96324 6.25 11.9997 6.25C16.0362 6.25 19.5651 8.56305 21.3814 11.9998C19.5651 15.4366 16.0362 17.7496 11.9997 17.7496Z" fill="black"/>
</svg>
