<svg width="49" height="49" viewBox="0 0 49 49" fill="none" xmlns="http://www.w3.org/2000/svg">
<g clip-path="url(#clip0_1155_22785)">
<path fill-rule="evenodd" clip-rule="evenodd" d="M0.506695 32.8856C0.501371 32.9314 0.499267 32.9769 0.500224 33.0219V47C0.500224 47.5523 0.947939 48 1.50022 48H47.5002C48.0525 48 48.5002 47.5523 48.5002 47V33.022C48.5012 32.9759 48.499 32.9293 48.4934 32.8825C48.4882 32.8378 48.48 32.7941 48.4691 32.7515L41.4741 2.77277C41.3685 2.32018 40.965 2 40.5002 2H8.50022C8.03548 2 7.63199 2.32018 7.52638 2.77277L0.531368 32.7514C0.5202 32.7951 0.511904 32.8399 0.506695 32.8856ZM46.24 32L39.7067 4H9.29375L2.76042 32H16.5002C17.0525 32 17.5002 32.4477 17.5002 33C17.5002 34.8565 18.2377 36.637 19.5505 37.9497C20.8632 39.2625 22.6437 40 24.5002 40C26.3567 40 28.1372 39.2625 29.45 37.9497C30.7627 36.637 31.5002 34.8565 31.5002 33C31.5002 32.4822 31.8937 32.0564 32.398 32.0052C32.4316 32.0017 32.4657 32 32.5002 32H46.24ZM2.50022 34H15.5559C15.7816 36.019 16.6858 37.9135 18.1363 39.364C19.8241 41.0518 22.1133 42 24.5002 42C26.8872 42 29.1764 41.0518 30.8642 39.364C32.3146 37.9135 33.2188 36.019 33.4445 34H46.5002V46H2.50022V34Z" fill="#A3A9AF"/>
</g>
<defs>
<clipPath id="clip0_1155_22785">
<rect width="48" height="48" fill="white" transform="translate(0.5 0.5)"/>
</clipPath>
</defs>
</svg>
