<svg width="24" height="24" viewBox="0 0 24 24" fill="none" xmlns="http://www.w3.org/2000/svg">
<rect opacity="0.01" x="0.5" y="0.5" width="23" height="23" fill="#D8D8D8" stroke="#979797"/>
<path fill-rule="evenodd" clip-rule="evenodd" d="M12.126 18H3C2.44772 18 2 17.5523 2 17C2 16.4477 2.44772 16 3 16H12.126C12.5701 14.2748 14.1362 13 16 13C17.8638 13 19.4299 14.2748 19.874 16H21C21.5523 16 22 16.4477 22 17C22 17.5523 21.5523 18 21 18H19.874C19.4299 19.7252 17.8638 21 16 21C14.1362 21 12.5701 19.7252 12.126 18ZM4.12602 8H3C2.44772 8 2 7.55228 2 7C2 6.44772 2.44772 6 3 6H4.12602C4.57006 4.27477 6.13616 3 8 3C9.86384 3 11.4299 4.27477 11.874 6H21C21.5523 6 22 6.44772 22 7C22 7.55228 21.5523 8 21 8H11.874C11.4299 9.72523 9.86384 11 8 11C6.13616 11 4.57006 9.72523 4.12602 8ZM8 9C9.10457 9 10 8.10457 10 7C10 5.89543 9.10457 5 8 5C6.89543 5 6 5.89543 6 7C6 8.10457 6.89543 9 8 9ZM16 19C17.1046 19 18 18.1046 18 17C18 15.8954 17.1046 15 16 15C14.8954 15 14 15.8954 14 17C14 18.1046 14.8954 19 16 19Z" fill="#FA0028"/>
<mask id="mask0" mask-type="alpha" maskUnits="userSpaceOnUse" x="2" y="3" width="20" height="18">
<path fill-rule="evenodd" clip-rule="evenodd" d="M12.126 18H3C2.44772 18 2 17.5523 2 17C2 16.4477 2.44772 16 3 16H12.126C12.5701 14.2748 14.1362 13 16 13C17.8638 13 19.4299 14.2748 19.874 16H21C21.5523 16 22 16.4477 22 17C22 17.5523 21.5523 18 21 18H19.874C19.4299 19.7252 17.8638 21 16 21C14.1362 21 12.5701 19.7252 12.126 18ZM4.12602 8H3C2.44772 8 2 7.55228 2 7C2 6.44772 2.44772 6 3 6H4.12602C4.57006 4.27477 6.13616 3 8 3C9.86384 3 11.4299 4.27477 11.874 6H21C21.5523 6 22 6.44772 22 7C22 7.55228 21.5523 8 21 8H11.874C11.4299 9.72523 9.86384 11 8 11C6.13616 11 4.57006 9.72523 4.12602 8ZM8 9C9.10457 9 10 8.10457 10 7C10 5.89543 9.10457 5 8 5C6.89543 5 6 5.89543 6 7C6 8.10457 6.89543 9 8 9ZM16 19C17.1046 19 18 18.1046 18 17C18 15.8954 17.1046 15 16 15C14.8954 15 14 15.8954 14 17C14 18.1046 14.8954 19 16 19Z" fill="white"/>
</mask>
<g mask="url(#mask0)">
</g>
</svg>
