<svg width="15" height="14" viewBox="0 0 15 14" fill="none" xmlns="http://www.w3.org/2000/svg">
<path d="M7.04034 9.65442C6.64894 9.65442 6.32086 9.9825 6.32086 10.3739C6.32086 10.7653 6.64894 11.0934 7.04034 11.0934C7.41735 11.0934 7.75982 10.7653 7.74255 10.3912C7.75982 9.97962 7.43462 9.65442 7.04034 9.65442Z" fill="black"/>
<path d="M13.6999 12.2043C14.1517 11.4244 14.1546 10.4948 13.7056 9.71775L9.19879 1.91284C8.75272 1.12717 7.9469 0.66095 7.04323 0.66095C6.13957 0.66095 5.33375 1.13005 4.88767 1.90997L0.375099 9.72351C-0.0738561 10.5092 -0.0709782 11.4445 0.383733 12.2244C0.832688 12.9957 1.63563 13.459 2.53354 13.459H11.5357C12.4364 13.459 13.2451 12.9899 13.6999 12.2043ZM12.7214 11.6402C12.471 12.0719 12.0278 12.328 11.5328 12.328H2.53066C2.04141 12.328 1.60109 12.0776 1.35647 11.6546C1.10897 11.2258 1.10609 10.7135 1.35359 10.2818L5.86616 2.47116C6.11079 2.04235 6.54823 1.78909 7.04323 1.78909C7.53536 1.78909 7.97568 2.04523 8.2203 2.47404L12.73 10.2847C12.9717 10.7049 12.9689 11.2114 12.7214 11.6402Z" fill="black"/>
<path d="M6.86193 4.60375C6.51945 4.7016 6.30649 5.01241 6.30649 5.38942C6.32376 5.61677 6.33815 5.84701 6.35541 6.07436C6.40434 6.94062 6.45326 7.7896 6.50219 8.65586C6.51945 8.9494 6.74681 9.16237 7.04036 9.16237C7.33391 9.16237 7.56414 8.93501 7.57853 8.63859C7.57853 8.46016 7.57853 8.29611 7.5958 8.11481C7.62745 7.55937 7.66199 7.00393 7.69365 6.44849C7.71091 6.08875 7.74257 5.72901 7.75984 5.36927C7.75984 5.23977 7.74257 5.12465 7.69365 5.00953C7.54687 4.68721 7.2044 4.52317 6.86193 4.60375Z" fill="black"/>
</svg>
