<svg width="24" height="24" viewBox="0 0 24 24" fill="none" xmlns="http://www.w3.org/2000/svg">
<path d="M2.5 12C2.5 9.23858 4.73858 7 7.5 7H9C9.55229 7 10 6.55228 10 6C10 5.44772 9.55229 5 9 5H7.5C3.63401 5 0.5 8.13401 0.5 12C0.5 15.866 3.63401 19 7.5 19H9C9.55229 19 10 18.5523 10 18C10 17.4477 9.55229 17 9 17H7.5C4.73858 17 2.5 14.7614 2.5 12Z" fill="black"/>
<path d="M15 5C14.4477 5 14 5.44772 14 6C14 6.55228 14.4477 7 15 7H16.5C19.2614 7 21.5 9.23858 21.5 12C21.5 14.7614 19.2614 17 16.5 17H15C14.4477 17 14 17.4477 14 18C14 18.5523 14.4477 19 15 19H16.5C20.366 19 23.5 15.866 23.5 12C23.5 8.13401 20.366 5 16.5 5H15Z" fill="black"/>
<path d="M16.4999 13.125C17.1212 13.125 17.6249 12.6213 17.6249 12C17.6249 11.3787 17.1212 10.875 16.4999 10.875L7.50014 10.875C6.87882 10.875 6.37514 11.3787 6.37514 12C6.37514 12.6213 6.87882 13.125 7.50014 13.125L16.4999 13.125Z" fill="black"/>
</svg>
