<svg width="24" height="24" viewBox="0 0 24 24" fill="none" xmlns="http://www.w3.org/2000/svg">
<path d="M4.25 11C4.25 10.5858 4.58579 10.25 5 10.25H16C16.4142 10.25 16.75 10.5858 16.75 11C16.75 11.4142 16.4142 11.75 16 11.75H5C4.58579 11.75 4.25 11.4142 4.25 11Z" fill="black"/>
<path d="M5 14.25C4.58579 14.25 4.25 14.5858 4.25 15C4.25 15.4142 4.58579 15.75 5 15.75H16C16.4142 15.75 16.75 15.4142 16.75 15C16.75 14.5858 16.4142 14.25 16 14.25H5Z" fill="black"/>
<path fill-rule="evenodd" clip-rule="evenodd" d="M7 0.25C4.92893 0.25 3.25 1.92893 3.25 4V6.32501C1.53832 6.67247 0.25 8.18578 0.25 10V16C0.25 18.0711 1.92893 19.75 4 19.75H4.25V21.865C4.25 23.3487 5.9805 24.1592 7.12032 23.2093L11.2715 19.75H17C19.0711 19.75 20.75 18.0711 20.75 16V13.675C22.4617 13.3275 23.75 11.8142 23.75 10V4C23.75 1.92893 22.0711 0.25 20 0.25H7ZM20.75 12.122C21.6239 11.8131 22.25 10.9797 22.25 10V4C22.25 2.75736 21.2426 1.75 20 1.75H7C5.75736 1.75 4.75 2.75736 4.75 4V6.25H17C19.0711 6.25 20.75 7.92893 20.75 10V12.122ZM1.75 10C1.75 8.75736 2.75736 7.75 4 7.75H17C18.2426 7.75 19.25 8.75736 19.25 10V16C19.25 17.2426 18.2426 18.25 17 18.25H11C10.8245 18.25 10.6546 18.3115 10.5199 18.4238L6.16004 22.057C5.99721 22.1927 5.75 22.0769 5.75 21.865V19C5.75 18.5858 5.41421 18.25 5 18.25H4C2.75736 18.25 1.75 17.2426 1.75 16V10Z" fill="black"/>
</svg>
