<svg width="24" height="24" viewBox="0 0 24 24" fill="none" xmlns="http://www.w3.org/2000/svg">
<path fill-rule="evenodd" clip-rule="evenodd" d="M2 0.25C1.0335 0.25 0.25 1.0335 0.25 2V4C0.25 4.9665 1.0335 5.75 2 5.75H4C4.9665 5.75 5.75 4.9665 5.75 4V2C5.75 1.0335 4.9665 0.25 4 0.25H2ZM1.75 2C1.75 1.86193 1.86193 1.75 2 1.75H4C4.13807 1.75 4.25 1.86193 4.25 2V4C4.25 4.13807 4.13807 4.25 4 4.25H2C1.86193 4.25 1.75 4.13807 1.75 4V2Z" fill="black"/>
<path fill-rule="evenodd" clip-rule="evenodd" d="M2 9.25C1.0335 9.25 0.25 10.0335 0.25 11V13C0.25 13.9665 1.0335 14.75 2 14.75H4C4.9665 14.75 5.75 13.9665 5.75 13V11C5.75 10.0335 4.9665 9.25 4 9.25H2ZM1.75 11C1.75 10.8619 1.86193 10.75 2 10.75H4C4.13807 10.75 4.25 10.8619 4.25 11V13C4.25 13.1381 4.13807 13.25 4 13.25H2C1.86193 13.25 1.75 13.1381 1.75 13V11Z" fill="black"/>
<path fill-rule="evenodd" clip-rule="evenodd" d="M0.25 20C0.25 19.0335 1.0335 18.25 2 18.25H4C4.9665 18.25 5.75 19.0335 5.75 20V22C5.75 22.9665 4.9665 23.75 4 23.75H2C1.0335 23.75 0.25 22.9665 0.25 22V20ZM2 19.75C1.86193 19.75 1.75 19.8619 1.75 20V22C1.75 22.1381 1.86193 22.25 2 22.25H4C4.13807 22.25 4.25 22.1381 4.25 22V20C4.25 19.8619 4.13807 19.75 4 19.75H2Z" fill="black"/>
<path d="M10 2.25C9.58579 2.25 9.25 2.58579 9.25 3C9.25 3.41421 9.58579 3.75 10 3.75H21C21.4142 3.75 21.75 3.41421 21.75 3C21.75 2.58579 21.4142 2.25 21 2.25H10Z" fill="black"/>
<path d="M9.25 12C9.25 11.5858 9.58579 11.25 10 11.25H21C21.4142 11.25 21.75 11.5858 21.75 12C21.75 12.4142 21.4142 12.75 21 12.75H10C9.58579 12.75 9.25 12.4142 9.25 12Z" fill="black"/>
<path d="M10 20.25C9.58579 20.25 9.25 20.5858 9.25 21C9.25 21.4142 9.58579 21.75 10 21.75H21C21.4142 21.75 21.75 21.4142 21.75 21C21.75 20.5858 21.4142 20.25 21 20.25H10Z" fill="black"/>
</svg>
