<svg width="132" height="132" viewBox="0 0 132 132" fill="none" xmlns="http://www.w3.org/2000/svg">
    <path fill-rule="evenodd" clip-rule="evenodd"
        d="M66 107.225C88.7679 107.225 107.225 88.7679 107.225 66C107.225 43.2321 88.7679 24.775 66 24.775C43.2321 24.775 24.775 43.2321 24.775 66C24.775 88.7679 43.2321 107.225 66 107.225ZM66 113C91.9574 113 113 91.9574 113 66C113 40.0426 91.9574 19 66 19C40.0426 19 19 40.0426 19 66C19 91.9574 40.0426 113 66 113Z"
        fill="#C8C8C8" />
    <path
        d="M61.0852 76.4607V73.5247C61.0852 71.8936 61.4318 70.4052 62.125 69.0595C62.8183 67.7138 63.6542 66.5925 64.6329 65.6953C65.6116 64.7982 66.5902 63.9419 67.5689 63.1263C68.5476 62.27 69.3835 61.3321 70.0768 60.3126C70.77 59.2524 71.1166 58.131 71.1166 56.9484C71.1166 55.5212 70.5457 54.3182 69.4039 53.3396C68.2621 52.3609 66.8553 51.8716 65.1834 51.8716C62.9406 51.8716 60.7794 52.7279 58.6997 54.4406L54.3568 49.119C57.4559 46.183 61.2891 44.715 65.8562 44.715C69.4855 44.715 72.6254 45.7752 75.276 47.8957C77.9265 49.9754 79.2518 52.7483 79.2518 56.2144C79.2518 58.0902 78.8848 59.7825 78.1508 61.2913C77.4168 62.8001 76.5197 64.0438 75.4595 65.0225C74.3992 66.0012 73.339 66.9391 72.2788 67.8362C71.2593 68.6925 70.3826 69.6508 69.6486 70.711C68.9146 71.7713 68.5476 72.8927 68.5476 74.0752V76.4607H61.0852ZM61.024 89V81.7211H68.5476V89H61.024Z"
        fill="#C8C8C8" />
</svg>
