<svg width="70" height="70" viewBox="0 0 70 70" fill="none" xmlns="http://www.w3.org/2000/svg">
<path fill-rule="evenodd" clip-rule="evenodd" d="M24 25C24 24.4477 24.4477 24 25 24H45C45.5523 24 46 24.4477 46 25V29C46 29.5523 45.5523 30 45 30H25C24.4477 30 24 29.5523 24 29V25ZM26 26V28H44V26H26ZM24 33C24 32.4477 24.4477 32 25 32H45C45.5523 32 46 32.4477 46 33V37C46 37.5523 45.5523 38 45 38H25C24.4477 38 24 37.5523 24 37V33ZM26 34V36H44V34H26ZM24 41C24 40.4477 24.4477 40 25 40H39C39.5523 40 40 40.4477 40 41V45C40 45.5523 39.5523 46 39 46H25C24.4477 46 24 45.5523 24 45V41ZM26 42V44H38V42H26Z" fill="#ED1C24"/>
<path fill-rule="evenodd" clip-rule="evenodd" d="M64.634 64.5853C69.2765 59.7179 69.0941 52.0085 64.2267 47.366C59.5212 42.878 52.1201 42.878 47.4147 47.366L47.3881 47.3838L47.3704 47.4103C42.7253 52.2754 42.9037 59.9849 47.7688 64.6299C52.4719 69.1203 59.8731 69.1241 64.5809 64.6385L64.6074 64.6207L64.634 64.5853ZM65.9627 56.0022C65.9528 58.2563 65.1713 60.439 63.7483 62.1871L49.8129 48.2517C51.561 46.8287 53.7437 46.0472 55.9978 46.0374C61.5013 46.0374 65.9627 50.4987 65.9627 56.0022ZM48.2473 49.8173C46.8243 51.5654 46.0428 53.7482 46.0329 56.0022C46.0329 61.5056 50.4944 65.9671 55.9978 65.9671C58.2518 65.9572 60.4345 65.1757 62.1826 63.7527L48.2473 49.8173Z" fill="#ED1C24"/>
<path d="M35.0001 1.4585C30.93 1.4585 27.4548 3.86768 25.8081 7.29183H14.5834C10.5697 7.29183 7.29175 10.5697 7.29175 14.5835V55.4168C7.29175 59.4306 10.5697 62.7085 14.5834 62.7085H39.5417C40.3471 62.7085 41 62.0556 41 61.2502C41 60.4447 40.3471 59.7918 39.5417 59.7918H14.5834C12.1805 59.7918 10.2084 57.8198 10.2084 55.4168V14.5835C10.2084 12.1806 12.1805 10.2085 14.5834 10.2085H27.798L28.1463 9.24664C29.1748 6.40614 31.8583 4.37516 35.0001 4.37516C38.1419 4.37516 40.8254 6.40614 41.8539 9.24664L42.2021 10.2085H55.4167C57.8197 10.2085 59.7917 12.1806 59.7917 14.5835V39.5417C59.7917 40.3471 60.4447 41 61.2501 41C62.0555 41 62.7084 40.3471 62.7084 39.5417V14.5835C62.7084 10.5697 59.4305 7.29183 55.4167 7.29183H44.1921C42.5454 3.86768 39.0701 1.4585 35.0001 1.4585Z" fill="#757575"/>
<path fill-rule="evenodd" clip-rule="evenodd" d="M35.0001 7.29183C32.5905 7.29183 30.6251 9.25725 30.6251 11.6668C30.6251 14.0764 32.5905 16.0418 35.0001 16.0418C37.4097 16.0418 39.3751 14.0764 39.3751 11.6668C39.3751 9.25725 37.4097 7.29183 35.0001 7.29183ZM33.5417 11.6668C33.5417 10.8681 34.2013 10.2085 35.0001 10.2085C35.7988 10.2085 36.4584 10.8681 36.4584 11.6668C36.4584 12.4656 35.7988 13.1252 35.0001 13.1252C34.2013 13.1252 33.5417 12.4656 33.5417 11.6668Z" fill="#757575"/>
</svg>
