<svg width="70" height="70" viewBox="0 0 70 70" fill="none" xmlns="http://www.w3.org/2000/svg">
<path fill-rule="evenodd" clip-rule="evenodd" d="M34.5439 1.00012C16.067 0.951235 1.04894 15.9101 1.00012 34.4115C0.9513 52.913 15.8904 67.951 34.3673 67.9999C35.6539 68.0033 36.9397 67.9323 38.2182 67.7874C39.0167 67.6989 39.5923 66.979 39.504 66.1794C39.4156 65.3798 38.6967 64.8034 37.8981 64.8919C37.4454 64.9425 36.9852 64.961 36.5251 64.9796L36.5241 64.9796C36.3487 64.9867 36.1733 64.9938 35.9984 65.0026V35.9567H65.0058C64.997 36.1318 64.9899 36.3076 64.9829 36.4834L64.9829 36.4839L64.9828 36.4844L64.9828 36.485V36.485C64.9643 36.9463 64.9457 37.4079 64.8952 37.859C64.8151 38.6594 65.3979 39.3733 66.1973 39.4537C66.9863 39.5331 67.6934 38.965 67.7871 38.1766C69.8517 19.8279 56.6708 3.27762 38.3468 1.21027C37.0841 1.06771 35.8144 0.997662 34.5439 1.00012ZM65.0175 33.0436H53.4128C53.3349 28.1124 52.5983 23.2138 51.2222 18.4783H60.5141C63.2289 22.8704 64.779 27.8838 65.0175 33.0436ZM50.2331 15.5654H58.4865C54.7725 10.8565 49.7606 7.34188 44.0715 5.45709C46.7957 8.36791 48.893 11.8087 50.2331 15.5654ZM4.07319 35.9566H15.675C15.7528 40.8878 16.4895 45.7864 17.8656 50.5219H8.5736C5.85865 46.1298 4.30856 41.1164 4.07019 35.9566H4.07319ZM17.8656 18.4785H8.5736C5.85879 22.8705 4.3087 27.8839 4.07019 33.0438H15.675C15.7528 28.1126 16.4895 23.2139 17.8656 18.4785ZM21.0162 18.4785H33.0893V33.0438H18.5841C18.6853 28.0962 19.5046 23.1898 21.0162 18.4785ZM33.0894 4.05851C28.6994 4.85677 24.7633 9.2146 22.0955 15.5651H33.0894V4.05851ZM35.9985 4.05875C40.3885 4.85688 44.3246 9.21485 46.9924 15.5653H35.9985V4.05875ZM18.8548 15.5654C20.1957 11.8084 22.294 8.36764 25.0193 5.45709C19.3291 7.34134 14.316 10.856 10.6014 15.5654H18.8548ZM10.6014 53.4349H18.8548C20.1949 57.1916 22.2922 60.6324 25.0164 63.5432C19.3273 61.6583 14.3154 58.1438 10.6014 53.4349ZM33.0894 53.4349H22.0955C24.7631 59.7824 28.6993 64.1432 33.0894 64.9415V53.4349ZM33.0893 50.5216H21.0162C19.5046 45.8103 18.6853 40.9039 18.5841 35.9564H33.0893V50.5216ZM48.0716 18.4785H35.9985V33.0438H50.5037C50.4025 28.0962 49.5832 23.1899 48.0716 18.4785Z" fill="#757575"/>
<path fill-rule="evenodd" clip-rule="evenodd" d="M64.634 64.5853C69.2765 59.7179 69.0941 52.0085 64.2267 47.366C59.5212 42.878 52.1201 42.878 47.4147 47.366L47.3881 47.3838L47.3704 47.4103C42.7253 52.2754 42.9037 59.9849 47.7688 64.6299C52.4719 69.1203 59.8731 69.1241 64.5809 64.6385L64.6074 64.6207L64.634 64.5853ZM65.9627 56.0022C65.9528 58.2563 65.1713 60.439 63.7483 62.1871L49.8129 48.2517C51.561 46.8287 53.7437 46.0472 55.9978 46.0374C61.5013 46.0374 65.9627 50.4987 65.9627 56.0022ZM48.2473 49.8173C46.8243 51.5654 46.0428 53.7482 46.0329 56.0022C46.0329 61.5056 50.4944 65.9671 55.9978 65.9671C58.2518 65.9572 60.4345 65.1757 62.1826 63.7527L48.2473 49.8173Z" fill="#ED1C24"/>
<rect x="34" y="50.5" width="4" height="3" rx="1.5" fill="#757575"/>
<rect x="50.5" y="34" width="3" height="4" rx="1.5" fill="#757575"/>
</svg>
