<svg width="24" height="24" viewBox="0 0 24 24" fill="none" xmlns="http://www.w3.org/2000/svg">
    <path
        d="M19.5557 14.8149C18.4537 14.8149 17.3716 14.6426 16.3462 14.3037C15.8438 14.1323 15.2261 14.2896 14.9194 14.6045L12.8955 16.1324C10.5483 14.8794 9.10252 13.4341 7.8667 11.1045L9.34959 9.13336C9.73486 8.74861 9.87305 8.18658 9.70748 7.65923C9.36717 6.62845 9.1943 5.54691 9.1943 4.44441C9.19434 3.64795 8.54639 3 7.74998 3H4.44436C3.64795 3 3 3.64795 3 4.44436C3 13.5733 10.4268 21 19.5557 21C20.3521 21 21 20.352 21 19.5556V16.2593C21 15.4629 20.352 14.8149 19.5557 14.8149Z"
        fill="#ED4B41" />
</svg>
