<svg width="24" height="25" viewBox="0 0 24 25" fill="none" xmlns="http://www.w3.org/2000/svg">
<g clip-path="url(#clip0)">
<rect opacity="0.01" x="0.5" y="0.524292" width="23" height="23" fill="#D8D8D8" stroke="#979797"/>
<path d="M4.00049 3.02429H20.0005C20.5528 3.02429 21.0005 3.47201 21.0005 4.02429V20.0243C21.0005 20.5766 20.5528 21.0243 20.0005 21.0243H4.00049C3.4482 21.0243 3.00049 20.5766 3.00049 20.0243V4.02429C3.00049 3.47201 3.4482 3.02429 4.00049 3.02429Z" stroke="#FA0028" stroke-width="2"/>
<path d="M3.50049 16.5243L6.80665 14.0447C7.20477 13.7461 7.76187 13.7857 8.11376 14.1376L9.82625 15.8501C10.2037 16.2275 10.8111 16.242 11.206 15.8829L15.2949 12.1657C15.6899 11.8066 16.2973 11.8211 16.6747 12.1985L21.0005 16.5243" stroke="#FA0028" stroke-width="2"/>
<path fill-rule="evenodd" clip-rule="evenodd" d="M7.5 9.02429C8.32843 9.02429 9 8.35272 9 7.52429C9 6.69586 8.32843 6.02429 7.5 6.02429C6.67157 6.02429 6 6.69586 6 7.52429C6 8.35272 6.67157 9.02429 7.5 9.02429Z" fill="#FA0028"/>
</g>
<defs>
<clipPath id="clip0">
<rect width="24" height="24" fill="white" transform="translate(0 0.024292)"/>
</clipPath>
</defs>
</svg>
