<svg width="24" height="24" viewBox="0 0 24 24" fill="none" xmlns="http://www.w3.org/2000/svg">
<path fill-rule="evenodd" clip-rule="evenodd" d="M15.1577 7.81473C15.8826 8.54678 16.8884 9.00024 18 9.00024C20.2091 9.00024 22 7.20938 22 5.00024C22 2.7911 20.2091 1.00024 18 1.00024C15.7909 1.00024 14 2.7911 14 5.00024C14 5.37708 14.0521 5.74175 14.1495 6.08744L8.84173 9.18494C8.11685 8.45323 7.11135 8 6 8C3.79086 8 2 9.79086 2 12C2 14.2091 3.79086 16 6 16C7.11155 16 8.11721 15.5466 8.84213 14.8147L14.1508 17.9081C14.0526 18.2551 14 18.6213 14 18.9998C14 21.2089 15.7909 22.9998 18 22.9998C20.2091 22.9998 22 21.2089 22 18.9998C22 16.7906 20.2091 14.9998 18 14.9998C16.89 14.9998 15.8856 15.4519 15.1609 16.182L9.85042 13.0874C9.94787 12.7417 10 12.3769 10 12C10 11.6229 9.94781 11.258 9.85026 10.912L15.1577 7.81473ZM18 3.00024C16.8954 3.00024 16 3.89567 16 5.00024C16 5.34698 16.0882 5.67311 16.2435 5.9574C16.2539 5.97313 16.2639 5.98924 16.2735 6.00574C16.2831 6.0222 16.2922 6.03882 16.3008 6.05559C16.6538 6.62274 17.2828 7.00024 18 7.00024C19.1046 7.00024 20 6.10481 20 5.00024C20 3.89567 19.1046 3.00024 18 3.00024ZM7.69949 10.9451C7.70788 10.9615 7.71677 10.9777 7.72616 10.9938C7.73564 11.01 7.74552 11.0259 7.75576 11.0415C7.91148 11.3261 8 11.6527 8 12C8 12.3473 7.91146 12.674 7.75571 12.9586C7.74537 12.9743 7.7354 12.9904 7.72584 13.0068C7.71659 13.0226 7.70783 13.0387 7.69955 13.0548C7.34662 13.6223 6.71742 14 6 14C4.89543 14 4 13.1046 4 12C4 10.8954 4.89543 10 6 10C6.71739 10 7.34656 10.3777 7.69949 10.9451ZM16 18.9998C16 18.675 16.0774 18.3682 16.2148 18.0971C16.2396 18.0645 16.2627 18.03 16.2839 17.9937C16.3042 17.9588 16.3222 17.9232 16.3379 17.8871C16.6968 17.352 17.3073 16.9998 18 16.9998C19.1046 16.9998 20 17.8952 20 18.9998C20 20.1043 19.1046 20.9998 18 20.9998C16.8954 20.9998 16 20.1043 16 18.9998Z" fill="black"/>
</svg>
