<svg width="24" height="24" viewBox="0 0 24 24" fill="none" xmlns="http://www.w3.org/2000/svg">
<path fill-rule="evenodd" clip-rule="evenodd" d="M9 1C13.9706 1 18 5.02944 18 10C18 11.9149 17.402 13.6901 16.3825 15.149L22.7772 20.4781C23.2863 20.9024 23.3551 21.6591 22.9308 22.1682C22.5065 22.6774 21.7499 22.7461 21.2407 22.3218L14.7568 16.9183C13.1965 18.2181 11.1895 19 9 19C4.02944 19 0 14.9706 0 10C0 5.02944 4.02944 1 9 1ZM15.6 10C15.6 6.35492 12.6451 3.4 9 3.4C5.35492 3.4 2.4 6.35492 2.4 10C2.4 13.6451 5.35492 16.6 9 16.6C12.6451 16.6 15.6 13.6451 15.6 10Z" fill="black"/>
</svg>
