<svg width="16" height="16" viewBox="0 0 16 16" fill="none" xmlns="http://www.w3.org/2000/svg">
    <path
        d="M2.5 6V5.25C2.27954 5.25 2.07024 5.347 1.92774 5.51522C1.78523 5.68344 1.72396 5.90583 1.7602 6.1233L2.5 6ZM13.5 6L14.2398 6.1233C14.276 5.90583 14.2148 5.68344 14.0723 5.51522C13.9298 5.347 13.7205 5.25 13.5 5.25V6ZM12.1393 14.1644L12.8791 14.2877L12.1393 14.1644ZM2.5 6.75H13.5V5.25H2.5V6.75ZM12.7602 5.8767L11.3995 14.0411L12.8791 14.2877L14.2398 6.1233L12.7602 5.8767ZM11.1529 14.25H4.84713V15.75H11.1529V14.25ZM4.60053 14.0411L3.2398 5.8767L1.7602 6.1233L3.12094 14.2877L4.60053 14.0411ZM4.84713 14.25C4.72492 14.25 4.62062 14.1616 4.60053 14.0411L3.12094 14.2877C3.26158 15.1315 3.99166 15.75 4.84713 15.75V14.25ZM11.3995 14.0411C11.3794 14.1616 11.2751 14.25 11.1529 14.25V15.75C12.0083 15.75 12.7384 15.1315 12.8791 14.2877L11.3995 14.0411Z"
        fill="#000"/>
    <path
        d="M2 2.75C1.58579 2.75 1.25 3.08579 1.25 3.5C1.25 3.91421 1.58579 4.25 2 4.25V2.75ZM14 4.25C14.4142 4.25 14.75 3.91421 14.75 3.5C14.75 3.08579 14.4142 2.75 14 2.75V4.25ZM2 4.25H14V2.75H2V4.25Z"
        fill="#000"/>
    <path d="M4 3L4.72361 1.55279C4.893 1.214 5.23926 1 5.61803 1H10.382C10.7607 1 11.107 1.214 11.2764 1.55279L12 3"
          stroke="#000" stroke-width="1.5" stroke-linecap="round" stroke-linejoin="round"/>
</svg>
