<svg width="77" height="78" viewBox="0 0 77 78" fill="none" xmlns="http://www.w3.org/2000/svg">
<path fill-rule="evenodd" clip-rule="evenodd" d="M26.8203 5.72337C27.4252 5.55777 28.0699 5.61334 28.6378 5.88106C29.2067 6.14929 29.6611 6.61283 29.9173 7.18825L29.9211 7.19697L31.9547 11.9258C32.9705 12.1043 33.9446 12.3735 34.8901 12.7114L39.0524 9.57432L39.0755 9.55823C39.5862 9.20257 40.2061 9.03853 40.8259 9.09509C41.4423 9.15135 42.0198 9.4223 42.4568 9.86155L48.8202 16.16L48.8364 16.1771C49.2575 16.6209 49.5114 17.1974 49.5543 17.808C49.5972 18.4186 49.4264 19.0245 49.0723 19.5227L49.0601 19.5398L45.951 23.6647C46.1307 24.1453 46.2844 24.6365 46.4162 25.1225C46.5528 25.6259 46.6659 26.1187 46.7564 26.6064L51.4667 28.5969C52.7185 29.0954 53.2965 30.4026 53.001 31.6335L52.9966 31.6518L50.6925 40.29C50.3637 41.6126 49.1444 42.37 47.9194 42.2682L47.8946 42.2662L42.7267 41.664C42.0833 42.436 41.3707 43.1612 40.5852 43.8258L41.218 48.9136C41.3982 50.2431 40.5519 51.4292 39.3141 51.7651L30.6593 54.1132C29.3605 54.4656 28.1439 53.7905 27.598 52.7182L27.5759 52.6749L25.5269 47.9103C24.5111 47.7317 23.5371 47.4625 22.5915 47.1246L18.4076 50.2781L18.361 50.308C17.4218 50.9128 16.0068 50.9806 15.0189 49.9686L8.66145 43.676L8.64524 43.659C8.2241 43.2151 7.9702 42.6387 7.92731 42.028C7.88442 41.4175 8.05519 40.8115 8.40934 40.3133L8.42149 40.2962L11.531 36.1708C11.349 35.6834 11.1937 35.1866 11.0654 34.7135C10.9302 34.2152 10.8322 33.6987 10.7596 33.2018L6.05511 31.2403C4.724 30.7378 4.20163 29.3499 4.51045 28.1675L4.51156 28.1633L6.7887 19.5479C7.11677 18.2241 8.33667 17.466 9.56226 17.5678L9.58701 17.5699L14.7633 18.173C15.401 17.4155 16.1089 16.6833 16.8967 16.0123L16.2602 10.8943L16.2584 10.8761C16.134 9.62752 16.8768 8.42115 18.1675 8.07096L26.8203 5.72337ZM27.3023 8.70105L19.2812 10.8773L20.0833 17.3269L19.3963 17.8494C18.339 18.6535 17.413 19.6254 16.5946 20.6788L16.076 21.3463L9.61536 20.5935L7.50105 28.5928L13.5466 31.1135L13.6354 32.0046C13.7017 32.6704 13.8025 33.3447 13.9607 33.928C14.1347 34.5693 14.3552 35.2161 14.607 35.7643L14.9808 36.5781L11.0387 41.808L16.9276 47.6368L22.1249 43.7196L22.9116 44.037C24.1713 44.5454 25.4323 44.9007 26.7548 45.0607L27.6117 45.1644L30.1793 51.135L38.2005 48.9588L37.3984 42.5091L38.0853 41.9866C39.1521 41.1753 40.0788 40.2254 40.8753 39.1725L41.3929 38.4883L47.867 39.2426L50.0028 31.2352L44.0324 28.7121L43.9195 27.8618C43.8361 27.2337 43.706 26.5901 43.5209 25.908C43.3412 25.2455 43.1268 24.6208 42.8746 24.0717L42.5008 23.2579L46.4429 18.028L40.554 12.1992L35.3567 16.1164L34.57 15.799C33.3103 15.2907 32.0493 14.9353 30.7268 14.7753L29.87 14.6717L27.3023 8.70105ZM26.9387 23.2756C23.2715 24.2706 21.0854 28.0806 22.0746 31.7266C23.0638 35.3726 26.8758 37.5553 30.543 36.5604C34.2101 35.5655 36.3962 31.7554 35.407 28.1094C34.4178 24.4634 30.6058 22.2807 26.9387 23.2756ZM19.1793 32.5122C17.7541 27.2591 20.895 21.8069 26.1531 20.3803C31.4113 18.9537 36.8772 22.0708 38.3024 27.3239C39.7276 32.5769 36.5866 38.0291 31.3285 39.4557C26.0704 40.8823 20.6045 37.7652 19.1793 32.5122Z" fill="#757575"/>
<path fill-rule="evenodd" clip-rule="evenodd" d="M63.9309 43.4707C64.3389 43.5714 64.6962 43.8156 64.9386 44.1577C65.1813 44.5003 65.2927 44.918 65.2543 45.3349L65.2532 45.3475L64.8933 48.7807C65.4238 49.2157 65.9007 49.69 66.3386 50.1951L69.7693 49.7124L69.7881 49.7105C70.2026 49.6681 70.6184 49.7746 70.9615 50.011C71.3026 50.246 71.5488 50.5934 71.6587 50.9912L73.2995 56.7564L73.3033 56.7716C73.4024 57.1666 73.3622 57.5836 73.1898 57.9521C73.0175 58.3207 72.723 58.6194 72.3552 58.7961L72.3426 58.8022L69.1923 60.2093C69.1401 60.5514 69.069 60.8914 68.9868 61.2211C68.9016 61.5626 68.8061 61.8901 68.6991 62.2071L70.7858 64.9113C71.349 65.6104 71.2568 66.5574 70.6898 67.1771L70.6814 67.1863L66.5321 71.5002C65.9133 72.1658 64.9555 72.2172 64.2717 71.7542L64.2578 71.7449L61.4603 69.7117C60.8366 69.9541 60.188 70.1468 59.5168 70.2803L58.2253 73.474C57.9006 74.303 57.0268 74.7289 56.1908 74.5205L50.4054 73.078C49.5293 72.8596 49.0478 72.0637 49.0799 71.2656L49.0812 71.2335L49.4444 67.7683C48.9139 67.3334 48.437 66.8591 47.9991 66.3539L44.5503 66.8392L44.5132 66.8416C43.7644 66.8907 42.9202 66.4645 42.6774 65.5525L41.0382 59.7926L41.0344 59.7775C40.9352 59.3825 40.9755 58.9655 41.1478 58.5969C41.3202 58.2283 41.6147 57.9297 41.9824 57.7529L41.9951 57.7468L45.1458 56.3395C45.1989 55.9927 45.2709 55.6489 45.3509 55.328C45.4352 54.9901 45.5473 54.6536 45.6678 54.337L43.5748 51.6515C42.967 50.9243 43.1175 49.9484 43.6764 49.3612L43.6784 49.3591L47.8047 45.0498C48.4235 44.3833 49.3818 44.3316 50.066 44.7948L50.0798 44.8042L52.8819 46.8406C53.4976 46.6048 54.1457 46.4066 54.8204 46.27L56.1193 43.0578L56.1241 43.0467C56.4549 42.2826 57.2758 41.8114 58.1469 42.0286L63.9309 43.4707ZM63.2409 45.3599L57.8857 44.0247L56.2512 48.0667L55.683 48.1492C54.8087 48.2761 53.9555 48.5441 53.1377 48.895L52.6153 49.1193L49.1138 46.5745L45.2767 50.5818L47.9654 54.0316L47.7298 54.5758C47.5514 54.9881 47.3899 55.4171 47.2915 55.8118C47.1835 56.2451 47.1006 56.697 47.0681 57.1014L47.0206 57.6925L43.0275 59.4761L44.5483 64.8197L48.8372 64.2163L49.1931 64.6623C49.7583 65.3706 50.3738 65.9893 51.0883 66.5134L51.5513 66.853L51.0968 71.1892L56.452 72.5244L58.0865 68.4824L58.6546 68.3999C59.5369 68.2718 60.3833 68.0169 61.1881 67.6592L61.7154 67.4247L65.2242 69.9748L69.0764 65.9699L66.432 62.5429L66.6406 62.0144C66.797 61.6184 66.9313 61.198 67.0462 60.7372C67.1578 60.2897 67.237 59.8527 67.2695 59.4476L67.317 58.8565L71.3101 57.0729L69.7894 51.7293L65.5005 52.3327L65.1446 51.8867C64.5793 51.1785 63.9638 50.5597 63.2493 50.0356L62.7864 49.6961L63.2409 45.3599ZM58.2877 53.7869C55.8462 53.1782 53.3316 54.6924 52.7153 57.1641C52.099 59.6359 53.6085 62.1534 56.0499 62.7621C58.4914 63.3709 61.0061 61.8566 61.6224 59.3849C62.2386 56.9132 60.7292 54.3956 58.2877 53.7869ZM50.7747 56.6803C51.6553 53.1483 55.2469 50.9675 58.7716 51.8463C62.2963 52.7251 64.4436 56.3368 63.5629 59.8688C62.6823 63.4007 59.0908 65.5815 55.5661 64.7027C52.0414 63.8239 49.8941 60.2123 50.7747 56.6803Z" fill="#00B628"/>
</svg>
