<svg width="327" height="327" viewBox="0 0 327 327" fill="none" xmlns="http://www.w3.org/2000/svg">
<g opacity="0.5">
<g clip-path="url(#clip0_363_15323)">
<rect width="327" height="327" rx="80" fill="#A8DEEF"/>
<path d="M234.703 121.432C238.118 108.843 226.578 97.3037 213.99 100.719L35.7341 149.072C23.2111 152.469 19.0379 168.134 28.2119 177.308L68.3008 217.397C71.1782 220.274 75.6993 220.689 79.053 218.383L163.055 160.628C170.771 155.323 180.098 164.651 174.793 172.367L117.039 256.369C114.733 259.722 115.147 264.243 118.025 267.121L158.114 307.21C167.288 316.384 182.952 312.211 186.349 299.688L234.703 121.432Z" fill="white"/>
<path d="M129.396 21.8104C130.992 15.924 125.597 10.5281 119.71 12.1248L36.358 34.7351C30.5023 36.3235 28.5509 43.6482 32.8406 47.9379L51.5861 66.6835C52.9316 68.0289 55.0457 68.2229 56.6139 67.1447L95.893 40.1386C99.501 37.6579 103.863 42.0195 101.382 45.6275L74.3758 84.9066C73.2976 86.4748 73.4915 88.5889 74.837 89.9343L93.5825 108.68C97.8722 112.97 105.197 111.018 106.785 105.163L129.396 21.8104Z" fill="white"/>
<path d="M305.384 140.124C306.324 136.658 303.147 133.482 299.682 134.422L250.612 147.733C247.164 148.668 246.016 152.98 248.541 155.505L259.577 166.541C260.369 167.333 261.613 167.447 262.537 166.813L285.661 150.914C287.785 149.453 290.352 152.021 288.892 154.145L272.993 177.269C272.359 178.192 272.473 179.437 273.265 180.229L284.3 191.265C286.826 193.79 291.138 192.641 292.073 189.194L305.384 140.124Z" fill="white"/>
</g>
</g>
<defs>
<clipPath id="clip0_363_15323">
<rect width="327" height="327" rx="80" fill="white"/>
</clipPath>
</defs>
</svg>
